<svg width="122" height="96" viewBox="0 0 122 96" fill="none" xmlns="http://www.w3.org/2000/svg">
<g filter="url(#filter0_d_248_1061)">
<path d="M69.488 70L60.336 56.24L52.272 70H39.856L54.256 47.152L39.536 25.072H52.272L61.296 38.64L69.232 25.072H81.648L67.376 47.728L82.224 70H69.488Z" fill="#1F51FF"/>
</g>
<path d="M10.112 59.224C8.46933 59.224 6.99733 58.9573 5.696 58.424C4.39467 57.8907 3.34933 57.1013 2.56 56.056C1.792 55.0107 1.38667 53.752 1.344 52.28H7.168C7.25333 53.112 7.54133 53.752 8.032 54.2C8.52267 54.6267 9.16267 54.84 9.952 54.84C10.7627 54.84 11.4027 54.6587 11.872 54.296C12.3413 53.912 12.576 53.3893 12.576 52.728C12.576 52.1733 12.384 51.7147 12 51.352C11.6373 50.9893 11.1787 50.6907 10.624 50.456C10.0907 50.2213 9.32267 49.9547 8.32 49.656C6.86933 49.208 5.68533 48.76 4.768 48.312C3.85067 47.864 3.06133 47.2027 2.4 46.328C1.73867 45.4533 1.408 44.312 1.408 42.904C1.408 40.8133 2.16533 39.1813 3.68 38.008C5.19467 36.8133 7.168 36.216 9.6 36.216C12.0747 36.216 14.0693 36.8133 15.584 38.008C17.0987 39.1813 17.9093 40.824 18.016 42.936H12.096C12.0533 42.2107 11.7867 41.6453 11.296 41.24C10.8053 40.8133 10.176 40.6 9.408 40.6C8.74667 40.6 8.21333 40.7813 7.808 41.144C7.40267 41.4853 7.2 41.9867 7.2 42.648C7.2 43.3733 7.54133 43.9387 8.224 44.344C8.90667 44.7493 9.97333 45.1867 11.424 45.656C12.8747 46.1467 14.048 46.616 14.944 47.064C15.8613 47.512 16.6507 48.1627 17.312 49.016C17.9733 49.8693 18.304 50.968 18.304 52.312C18.304 53.592 17.9733 54.7547 17.312 55.8C16.672 56.8453 15.7333 57.6773 14.496 58.296C13.2587 58.9147 11.7973 59.224 10.112 59.224ZM31.6235 54.36V59H28.8395C26.8555 59 25.3088 58.52 24.1995 57.56C23.0902 56.5787 22.5355 54.9893 22.5355 52.792V45.688H20.3595V41.144H22.5355V36.792H28.0075V41.144H31.5915V45.688H28.0075V52.856C28.0075 53.3893 28.1355 53.7733 28.3915 54.008C28.6475 54.2427 29.0742 54.36 29.6715 54.36H31.6235ZM40.1435 44.12C40.7835 43.1387 41.5835 42.3707 42.5435 41.816C43.5035 41.24 44.5702 40.952 45.7435 40.952V46.744H44.2395C42.8742 46.744 41.8502 47.0427 41.1675 47.64C40.4848 48.216 40.1435 49.24 40.1435 50.712V59H34.6715V41.144H40.1435V44.12ZM65.191 49.784C65.191 50.296 65.159 50.8293 65.095 51.384H52.711C52.7963 52.4933 53.1483 53.3467 53.767 53.944C54.407 54.52 55.1857 54.808 56.103 54.808C57.4683 54.808 58.4177 54.232 58.951 53.08H64.775C64.4763 54.2533 63.9323 55.3093 63.143 56.248C62.375 57.1867 61.4043 57.9227 60.231 58.456C59.0577 58.9893 57.7457 59.256 56.295 59.256C54.5457 59.256 52.9883 58.8827 51.623 58.136C50.2577 57.3893 49.191 56.3227 48.423 54.936C47.655 53.5493 47.271 51.928 47.271 50.072C47.271 48.216 47.6443 46.5947 48.391 45.208C49.159 43.8213 50.2257 42.7547 51.591 42.008C52.9563 41.2613 54.5243 40.888 56.295 40.888C58.023 40.888 59.559 41.2507 60.903 41.976C62.247 42.7013 63.2923 43.736 64.039 45.08C64.807 46.424 65.191 47.992 65.191 49.784ZM59.591 48.344C59.591 47.4053 59.271 46.6587 58.631 46.104C57.991 45.5493 57.191 45.272 56.231 45.272C55.3137 45.272 54.535 45.5387 53.895 46.072C53.2763 46.6053 52.8923 47.3627 52.743 48.344H59.591ZM66.9898 50.04C66.9898 48.2053 67.3311 46.5947 68.0138 45.208C68.7178 43.8213 69.6671 42.7547 70.8618 42.008C72.0564 41.2613 73.3898 40.888 74.8618 40.888C76.1204 40.888 77.2191 41.144 78.1578 41.656C79.1178 42.168 79.8538 42.84 80.3658 43.672V41.144H85.8378V59H80.3658V56.472C79.8324 57.304 79.0858 57.976 78.1258 58.488C77.1871 59 76.0884 59.256 74.8298 59.256C73.3791 59.256 72.0564 58.8827 70.8618 58.136C69.6671 57.368 68.7178 56.2907 68.0138 54.904C67.3311 53.496 66.9898 51.8747 66.9898 50.04ZM80.3658 50.072C80.3658 48.7067 79.9818 47.6293 79.2138 46.84C78.4671 46.0507 77.5498 45.656 76.4618 45.656C75.3738 45.656 74.4458 46.0507 73.6778 46.84C72.9311 47.608 72.5578 48.6747 72.5578 50.04C72.5578 51.4053 72.9311 52.4933 73.6778 53.304C74.4458 54.0933 75.3738 54.488 76.4618 54.488C77.5498 54.488 78.4671 54.0933 79.2138 53.304C79.9818 52.5147 80.3658 51.4373 80.3658 50.072ZM112.581 40.952C114.799 40.952 116.559 41.624 117.861 42.968C119.183 44.312 119.845 46.1787 119.845 48.568V59H114.405V49.304C114.405 48.152 114.095 47.2667 113.477 46.648C112.879 46.008 112.047 45.688 110.981 45.688C109.914 45.688 109.071 46.008 108.453 46.648C107.855 47.2667 107.557 48.152 107.557 49.304V59H102.117V49.304C102.117 48.152 101.807 47.2667 101.189 46.648C100.591 46.008 99.7592 45.688 98.6925 45.688C97.6258 45.688 96.7832 46.008 96.1645 46.648C95.5672 47.2667 95.2685 48.152 95.2685 49.304V59H89.7965V41.144H95.2685V43.384C95.8232 42.6373 96.5485 42.0507 97.4445 41.624C98.3405 41.176 99.3538 40.952 100.485 40.952C101.829 40.952 103.023 41.24 104.069 41.816C105.135 42.392 105.967 43.2133 106.565 44.28C107.183 43.2987 108.026 42.4987 109.093 41.88C110.159 41.2613 111.322 40.952 112.581 40.952Z" fill="black"/>
<defs>
<filter id="filter0_d_248_1061" x="29.536" y="19.0718" width="62.688" height="64.9282" filterUnits="userSpaceOnUse" color-interpolation-filters="sRGB">
<feFlood flood-opacity="0" result="BackgroundImageFix"/>
<feColorMatrix in="SourceAlpha" type="matrix" values="0 0 0 0 0 0 0 0 0 0 0 0 0 0 0 0 0 0 127 0" result="hardAlpha"/>
<feOffset dy="4"/>
<feGaussianBlur stdDeviation="5"/>
<feComposite in2="hardAlpha" operator="out"/>
<feColorMatrix type="matrix" values="0 0 0 0 0.121569 0 0 0 0 0.317647 0 0 0 0 1 0 0 0 0.7 0"/>
<feBlend mode="normal" in2="BackgroundImageFix" result="effect1_dropShadow_248_1061"/>
<feBlend mode="normal" in="SourceGraphic" in2="effect1_dropShadow_248_1061" result="shape"/>
</filter>
</defs>
</svg>
